<svg xmlns="http://www.w3.org/2000/svg" viewBox="0 0 32 32" width="32" height="32">
  <!-- Bull head base -->
  <ellipse cx="16" cy="19.2" rx="11.2" ry="8.8" fill="#8B4513" stroke="#654321" stroke-width="0.3"/>
  
  <!-- Horns -->
  <path d="M7.2 13.6 Q5.6 11.2 4 8.8 Q3.2 7.2 4 6.4 Q5.6 5.6 7.2 7.2 Q8.8 9.6 9.6 12" fill="#F5F5DC" stroke="#D2B48C" stroke-width="0.3"/>
  <path d="M24.8 13.6 Q26.4 11.2 28 8.8 Q28.8 7.2 28 6.4 Q26.4 5.6 24.8 7.2 Q23.2 9.6 22.4 12" fill="#F5F5DC" stroke="#D2B48C" stroke-width="0.3"/>
  
  <!-- Ears -->
  <ellipse cx="9.6" cy="15.2" rx="1.9" ry="2.9" fill="#CD853F"/>
  <ellipse cx="22.4" cy="15.2" rx="1.9" ry="2.9" fill="#CD853F"/>
  
  <!-- Eyes -->
  <circle cx="12.8" cy="17.6" r="1.3" fill="white"/>
  <circle cx="19.2" cy="17.6" r="1.3" fill="white"/>
  <circle cx="13.1" cy="17.3" r="0.8" fill="black"/>
  <circle cx="18.9" cy="17.3" r="0.8" fill="black"/>
  
  <!-- Snout -->
  <ellipse cx="16" cy="21.6" rx="3.2" ry="2.4" fill="#DEB887"/>
  
  <!-- Nostrils -->
  <ellipse cx="15.2" cy="21.6" rx="0.5" ry="0.8" fill="#8B4513"/>
  <ellipse cx="16.8" cy="21.6" rx="0.5" ry="0.8" fill="#8B4513"/>
  
  <!-- Hair tuft -->
  <path d="M13.6 12 L16 9.6 L18.4 12 L16.8 12.8 L15.2 12.8 Z" fill="#654321"/>
</svg>